<?xml version="1.0" encoding="UTF-8" standalone="no"?>
<!-- Created with Inkscape (http://www.inkscape.org/) -->

<svg
    xmlns:dc="http://purl.org/dc/elements/1.1/"
    xmlns:cc="http://creativecommons.org/ns#"
    xmlns:rdf="http://www.w3.org/1999/02/22-rdf-syntax-ns#"
    xmlns:svg="http://www.w3.org/2000/svg"
    xmlns="http://www.w3.org/2000/svg"
    xmlns:sodipodi="http://sodipodi.sourceforge.net/DTD/sodipodi-0.dtd"
    xmlns:inkscape="http://www.inkscape.org/namespaces/inkscape"
    version="1.1"
    id="svg2"
    width="449.80948"
    height="439.96005"
    viewBox="0 0 449.80949 439.96005"
    sodipodi:docname="sphero_logo.svg"
    inkscape:version="0.92.1 r15371">
    <metadata
        id="metadata8">
        <rdf:RDF>
            <cc:Work
                rdf:about="">
                <dc:format>image/svg+xml</dc:format>
                <dc:type
                    rdf:resource="http://purl.org/dc/dcmitype/StillImage" />
                <dc:title></dc:title>
            </cc:Work>
        </rdf:RDF>
    </metadata>
    <defs
        id="defs6" />
    <sodipodi:namedview
        pagecolor="#ffffff"
        bordercolor="#666666"
        borderopacity="1"
        objecttolerance="10"
        gridtolerance="10"
        guidetolerance="10"
        inkscape:pageopacity="0"
        inkscape:pageshadow="2"
        inkscape:window-width="1280"
        inkscape:window-height="961"
        id="namedview4"
        showgrid="false"
        inkscape:zoom="0.77777778"
        inkscape:cx="428.37223"
        inkscape:cy="306.91092"
        inkscape:window-x="-8"
        inkscape:window-y="-8"
        inkscape:window-maximized="1"
        inkscape:current-layer="svg2" />
    <path
        inkscape:connector-curvature="0"
        id="path3772"
        d="M 228.02973,439.95299 C 214.29638,439.81712 193.475,437.46225 181.76,434.71989 170.045,431.97756 153.5793,426.92787 145.16955,423.49837 136.7598,420.0689 121.21775,411.65994 110.63167,404.81185 100.04558,397.96373 86.148,387.63013 79.74816,381.84826 73.34831,376.06636 62.22734,363.50732 55.03488,353.93924 47.84242,344.37114 37.53954,327.76947 32.1396,317.04659 26.73965,306.32372 19.69965,287.79213 16.49517,275.86524 c -4.3467,-16.17813 -5.82634,-30.34012 -5.82634,-55.76525 0,-25.43565 1.47929,-39.58611 5.83206,-55.78761 3.20763,-11.93919 9.90383,-29.83119 14.88044,-39.76 C 36.35794,114.62357 46.28562,98.24479 53.44285,88.1551 62.44969,75.45799 66.456,66.976654 66.456,60.606361 66.456,55.544243 64.12741,48.829447 61.28136,45.684593 58.4353,42.539736 43.4827,32.818897 28.05335,24.082727 12.62401,15.346557 0,6.35406 0,4.09939 0,0.58837 18.11232,0 126.19433,0 c 99.66075,0 130.33298,0.87059 145.87781,4.14055 10.82591,2.2773 28.17965,7.33849 38.56382,11.24709 10.38421,3.908601 27.81116,12.883848 38.72658,19.944994 10.9154,7.061146 25.74594,18.276629 32.95673,24.923297 7.21079,6.646664 18.56014,19.770673 25.22076,29.164459 6.66065,9.39378 16.08161,25.00425 20.93548,34.68993 4.85388,9.68567 11.63972,27.57767 15.07961,39.76 4.86782,17.23926 6.25436,29.70495 6.25436,56.22967 0,26.52472 -1.38654,38.99041 -6.25436,56.22967 -3.43989,12.18232 -10.22573,30.07432 -15.07961,39.76 -4.85387,9.68567 -14.36991,25.42938 -21.14675,34.98601 -6.77684,9.5566 -18.76717,23.17085 -26.64516,30.25384 -7.87799,7.08302 -21.36921,17.55478 -29.98046,23.27059 -8.61125,5.71584 -24.68719,14.11625 -35.72431,18.66757 -11.03712,4.55136 -29.49766,10.22304 -41.02342,12.60375 -11.52578,2.38072 -32.19233,4.2174 -45.92568,4.08157 z m 11.32689,-49.6841 c 12.15314,-0.73493 31.96214,-4.46948 44.02,-8.29896 12.05784,-3.82949 29.79694,-12.12896 39.42019,-18.44327 9.62323,-6.31429 24.36218,-18.89597 32.75318,-27.95926 8.39101,-9.06329 19.89807,-25.33215 25.57128,-36.15306 5.67318,-10.82088 12.34074,-27.52682 14.81682,-37.12429 2.47605,-9.59747 4.48302,-28.12847 4.45994,-41.18 -0.0227,-13.05153 -1.96906,-31.90528 -4.32436,-41.89722 -2.3553,-9.99194 -9.00399,-27.15239 -14.77484,-38.13435 -5.77086,-10.98196 -17.30253,-27.3229 -25.62598,-36.31319 -8.32341,-8.9903 -22.3669,-21.14725 -31.20773,-27.01546 -8.84084,-5.868209 -26.99369,-14.453268 -40.33968,-19.077909 -20.4953,-7.102013 -28.67797,-8.420517 -52.66544,-8.486181 -19.04196,-0.05211 -34.01482,1.576629 -45.44,4.942983 -9.372,2.7614 -25.986,9.634432 -36.92,15.273408 -12.95662,6.682097 -26.92246,17.322939 -40.10194,30.554449 -14.27374,14.33009 -23.24146,26.48496 -30.48731,41.32259 -5.64595,11.56145 -12.20158,28.63783 -14.56806,37.9475 -2.36648,9.30968 -4.30269,26.81927 -4.30269,38.91021 0,12.09095 1.39313,28.75594 3.09586,37.03332 1.70271,8.27738 8.09537,25.5233 14.20589,38.32427 6.85778,14.36639 17.13606,29.7833 26.85446,40.28034 8.65944,9.35323 22.67636,21.60703 31.14872,27.23066 8.47235,5.62362 23.84216,13.40079 34.15512,17.28256 10.31297,3.8818 25.36789,8.24114 33.4554,9.68744 8.0875,1.44633 24.64803,2.02836 36.80117,1.29342 z M 215.27103,289.66937 c -5.15406,-0.006 -13.34745,-2.43536 -18.20751,-5.39893 -4.86007,-2.96359 -11.34644,-9.02932 -14.41415,-13.4794 -3.06772,-4.45008 -7.3983,-12.56405 -9.62352,-18.03105 -2.42994,-5.96998 -4.01881,-19.58149 -3.97814,-34.08 0.0598,-21.33378 1.05026,-25.94649 8.52,-39.68006 4.64876,-8.54703 12.79478,-18.45153 18.10228,-22.01 5.33086,-3.57413 13.97406,-6.46994 19.31103,-6.46994 5.31358,0 13.36552,1.91566 17.89321,4.25702 4.52768,2.34135 11.60095,8.67373 15.71837,14.07194 4.11742,5.39822 9.29548,15.82668 11.50681,23.17435 2.21132,7.34768 4.02059,19.95335 4.02059,28.01259 0,8.05924 -1.94851,21.21453 -4.33003,29.23396 -2.38151,8.01943 -7.64574,18.52129 -11.69829,23.33747 -4.05254,4.81617 -10.98656,10.62777 -15.40894,12.91468 -4.42237,2.28688 -12.25764,4.15322 -17.41171,4.14737 z M 332.607,269.68628 c -4.08486,-0.0625 -10.81523,-1.95419 -14.95638,-4.20367 -4.14117,-2.24949 -10.21167,-9.63081 -13.49,-16.40295 -3.97827,-8.21802 -5.96062,-17.85588 -5.96062,-28.97967 0,-11.13287 1.98249,-20.76197 5.97084,-29.00082 3.3393,-6.89806 9.53556,-14.1775 14.05897,-16.51665 4.44846,-2.30039 11.17424,-4.18253 14.94615,-4.18253 3.77192,0 10.38594,2.77505 14.69783,6.16678 4.31188,3.39173 10.20716,11.37923 13.10063,17.75 2.89345,6.37077 5.26085,17.97322 5.26085,25.78322 0,7.81 -2.3674,19.41245 -5.26085,25.78322 -2.89347,6.37077 -8.78875,14.35827 -13.10063,17.75 -4.31189,3.39173 -11.18194,6.11561 -15.26679,6.05307 z"
        style="fill:#1498ce;stroke-width:2.83999991"
        sodipodi:nodetypes="cccccccsssssscsssscsscccsssccccscscsscccsscssssssssscsssccscccscssssscscscccssscssccsccc" />
</svg>